<svg width="54" height="38" viewBox="0 0 54 38" fill="none" xmlns="http://www.w3.org/2000/svg">
<path d="M7.98224 28.7259C9.90851 29.8002 13.0316 29.8002 14.9579 28.7259C16.8841 27.6516 16.8841 25.9098 14.9579 24.8355C13.0316 23.7612 9.90851 23.7612 7.98224 24.8355C6.05597 25.9098 6.05597 27.6516 7.98224 28.7259Z" fill="#1BA2FF"/>
<path d="M27.9752 14.1371C30.8647 15.7485 35.5493 15.7485 38.4387 14.1371C41.328 12.5256 41.328 9.91297 38.4387 8.30154C35.5493 6.6901 30.8647 6.6901 27.9752 8.30154C25.0859 9.91297 25.0859 12.5256 27.9752 14.1371Z" fill="#1BA2FF"/>
<path d="M17.3622 21.4315C19.77 22.7743 23.6739 22.7743 26.0817 21.4315C28.4896 20.0886 28.4896 17.9114 26.0817 16.5685C23.6739 15.2257 19.77 15.2257 17.3622 16.5685C14.9544 17.9114 14.9544 20.0886 17.3622 21.4315Z" fill="#1BA2FF"/>
<path d="M1.87863 20.4589C3.32333 21.2646 5.66565 21.2646 7.11035 20.4589C8.55505 19.6532 8.55505 18.3469 7.11035 17.5411C5.66565 16.7354 3.32333 16.7354 1.87863 17.5411C0.433929 18.3469 0.433931 19.6532 1.87863 20.4589Z" fill="#1BA2FF"/>
<path d="M17.3622 5.87008C19.77 7.21294 23.6739 7.21294 26.0817 5.87008C28.4896 4.52722 28.4896 2.35001 26.0817 1.00715C23.6739 -0.335716 19.77 -0.335717 17.3622 1.00715C14.9544 2.35001 14.9544 4.52722 17.3622 5.87008Z" fill="#1BA2FF"/>
<path d="M7.98223 13.1645C9.9085 14.2388 13.0316 14.2388 14.9579 13.1645C16.8841 12.0902 16.8841 10.3484 14.9579 9.27416C13.0316 8.19987 9.9085 8.19987 7.98223 9.27416C6.05596 10.3484 6.05598 12.0902 7.98223 13.1645Z" fill="#1BA2FF"/>
<path d="M17.3622 36.9929C19.77 38.3357 23.6739 38.3357 26.0817 36.9929C28.4896 35.65 28.4896 33.4728 26.0817 32.1299C23.6739 30.7871 19.77 30.7871 17.3622 32.1299C14.9544 33.4728 14.9544 35.65 17.3622 36.9929Z" fill="#1BA2FF"/>
<path d="M40.6934 21.9178C43.5828 23.5292 48.2675 23.5292 51.1569 21.9178C54.0463 20.3064 54.0463 17.6937 51.1569 16.0823C48.2675 14.4708 43.5828 14.4708 40.6934 16.0823C37.804 17.6937 37.804 20.3064 40.6934 21.9178Z" fill="#1BA2FF"/>
<path d="M27.9752 29.6984C30.8647 31.3099 35.5493 31.3099 38.4387 29.6984C41.328 28.087 41.328 25.4744 38.4387 23.8629C35.5493 22.2515 30.8647 22.2515 27.9752 23.8629C25.0859 25.4744 25.0859 28.087 27.9752 29.6984Z" fill="#1BA2FF"/>
</svg>
